<svg viewBox="0 0 24 24" fill="black" xmlns="http://www.w3.org/2000/svg">
<path d="M20.8999 11.4926C20.8365 11.3291 20.7413 11.1797 20.6198 11.053L13.9507 4.3918C13.8264 4.26758 13.6787 4.16905 13.5162 4.10183C13.3537 4.0346 13.1796 4 13.0037 4C12.6485 4 12.3078 4.14093 12.0567 4.3918C11.9323 4.51602 11.8337 4.66348 11.7664 4.82578C11.6991 4.98807 11.6644 5.16202 11.6644 5.33769C11.6644 5.69246 11.8055 6.03271 12.0567 6.28357L16.4583 10.6666H4.33383C3.98007 10.6666 3.64081 10.807 3.39067 11.0568C3.14053 11.3067 3 11.6455 3 11.9989C3 12.3522 3.14053 12.6911 3.39067 12.9409C3.64081 13.1907 3.98007 13.3311 4.33383 13.3311H16.4583L12.0567 17.7142C11.9317 17.838 11.8324 17.9853 11.7647 18.1477C11.697 18.31 11.6621 18.4842 11.6621 18.66C11.6621 18.8359 11.697 19.01 11.7647 19.1724C11.8324 19.3347 11.9317 19.4821 12.0567 19.6059C12.1807 19.7308 12.3282 19.8299 12.4907 19.8975C12.6533 19.9652 12.8276 20 13.0037 20C13.1798 20 13.3541 19.9652 13.5167 19.8975C13.6792 19.8299 13.8267 19.7308 13.9507 19.6059L20.6198 12.9448C20.7413 12.818 20.8365 12.6686 20.8999 12.5051C21.0334 12.1808 21.0334 11.817 20.8999 11.4926Z"/>
</svg>
