<svg viewBox="0 0 24 24" fill="black" xmlns="http://www.w3.org/2000/svg">
<path d="M11.29 8.46L5.63998 14.12C5.54625 14.213 5.47185 14.3236 5.42108 14.4454C5.37032 14.5673 5.34418 14.698 5.34418 14.83C5.34418 14.962 5.37032 15.0927 5.42108 15.2146C5.47185 15.3364 5.54625 15.447 5.63998 15.54C5.82734 15.7263 6.08079 15.8308 6.34498 15.8308C6.60916 15.8308 6.86261 15.7263 7.04998 15.54L12.05 10.59L17 15.54C17.1873 15.7263 17.4408 15.8308 17.705 15.8308C17.9692 15.8308 18.2226 15.7263 18.41 15.54C18.5045 15.4474 18.5796 15.3369 18.6311 15.2151C18.6826 15.0932 18.7094 14.9623 18.71 14.83C18.7094 14.6977 18.6826 14.5668 18.6311 14.4449C18.5796 14.3231 18.5045 14.2126 18.41 14.12L12.76 8.46C12.6663 8.3585 12.5527 8.27749 12.4262 8.22208C12.2997 8.16667 12.1631 8.13807 12.025 8.13807C11.8869 8.13807 11.7503 8.16667 11.6238 8.22208C11.4973 8.27749 11.3836 8.3585 11.29 8.46Z"/>
</svg>
