<svg viewBox="0 0 190 190" fill="black" xmlns="http://www.w3.org/2000/svg">
<path d="M101.207 40.2722L112.528 51.594C113.23 52.3014 114.065 52.8629 114.984 53.2461C115.904 53.6293 116.89 53.8266 117.887 53.8266C118.883 53.8266 119.869 53.6293 120.789 53.2461C121.709 52.8629 122.544 52.3014 123.245 51.594C124.391 50.3916 125.107 48.8451 125.285 47.194C125.462 45.5429 125.09 43.8793 124.226 42.4611H151.849C153.851 42.4611 155.77 41.6659 157.186 40.2504C158.601 38.8349 159.396 36.9151 159.396 34.9133C159.396 32.9115 158.601 30.9917 157.186 29.5762C155.77 28.1607 153.851 27.3655 151.849 27.3655H124.226C125.09 25.9473 125.462 24.2837 125.285 22.6326C125.107 20.9815 124.391 19.435 123.245 18.2326C122.544 17.5252 121.709 16.9637 120.789 16.5805C119.869 16.1973 118.883 16 117.887 16C116.89 16 115.904 16.1973 114.984 16.5805C114.065 16.9637 113.23 17.5252 112.528 18.2326L101.207 29.5543C100.52 30.2722 99.9818 31.1186 99.6226 32.0451C98.8677 33.8827 98.8677 35.9439 99.6226 37.7815C99.9818 38.708 100.52 39.5544 101.207 40.2722ZM181.434 69.7842C181.075 68.8577 180.536 68.0112 179.849 67.2934L168.528 55.9717C167.827 55.2642 166.992 54.7027 166.072 54.3195C165.152 53.9363 164.166 53.7391 163.17 53.7391C162.173 53.7391 161.187 53.9363 160.267 54.3195C159.348 54.7027 158.513 55.2642 157.811 55.9717C156.666 57.174 155.949 58.7206 155.772 60.3717C155.594 62.0228 155.966 63.6863 156.83 65.1045H129.207C127.206 65.1045 125.286 65.8998 123.871 67.3152C122.455 68.7307 121.66 70.6506 121.66 72.6524C121.66 74.6542 122.455 76.574 123.871 77.9895C125.286 79.405 127.206 80.2002 129.207 80.2002H156.83C155.966 81.6184 155.594 83.2819 155.772 84.933C155.949 86.5842 156.666 88.1307 157.811 89.333C158.513 90.0405 159.348 90.602 160.267 90.9852C161.187 91.3684 162.173 91.5656 163.17 91.5656C164.166 91.5656 165.152 91.3684 166.072 90.9852C166.992 90.602 167.827 90.0405 168.528 89.333L179.849 78.0113C180.536 77.2935 181.075 76.447 181.434 75.5205C182.189 73.6829 182.189 71.6218 181.434 69.7842ZM91.4716 76.4263C85.5009 76.4263 79.6642 78.1969 74.6997 81.5144C69.7352 84.8319 65.8659 89.5471 63.581 95.0638C61.2961 100.581 60.6982 106.651 61.8631 112.508C63.0279 118.364 65.9031 123.744 70.125 127.966C74.347 132.188 79.7261 135.064 85.5821 136.229C91.4382 137.394 97.5081 136.796 103.024 134.511C108.541 132.225 113.255 128.356 116.573 123.391C119.89 118.426 121.66 112.589 121.66 106.618C121.66 98.6103 118.48 90.931 112.818 85.2691C107.157 79.6071 99.4782 76.4263 91.4716 76.4263ZM91.4716 121.713C88.4863 121.713 85.5679 120.828 83.0857 119.169C80.6034 117.51 78.6688 115.153 77.5263 112.394C76.3839 109.636 76.0849 106.601 76.6674 103.672C77.2498 100.744 78.6874 98.0545 80.7983 95.9433C82.9093 93.8321 85.5989 92.3944 88.5269 91.8119C91.4549 91.2295 94.4899 91.5284 97.248 92.671C100.006 93.8135 102.364 95.7484 104.022 98.2308C105.681 100.713 106.566 103.632 106.566 106.618C106.566 110.621 104.976 114.461 102.145 117.292C99.3142 120.123 95.4749 121.713 91.4716 121.713ZM159.396 99.0697C157.395 99.0697 155.475 99.8649 154.059 101.28C152.644 102.696 151.849 104.616 151.849 106.618V144.357C151.849 146.358 151.054 148.278 149.638 149.694C148.223 151.109 146.303 151.904 144.302 151.904H38.6415C36.6399 151.904 34.7202 151.109 33.3048 149.694C31.8895 148.278 31.0943 146.358 31.0943 144.357V83.9741C31.0943 81.9723 31.8895 80.0525 33.3048 78.637C34.7202 77.2215 36.6399 76.4263 38.6415 76.4263H53.7358C55.391 76.5073 57.0269 76.0412 58.3909 75.0999C59.7549 74.1587 60.7712 72.7946 61.283 71.2183L65.3585 58.9908C65.8302 57.537 66.7322 56.2607 67.9451 55.3308C69.158 54.4008 70.6246 53.861 72.1509 53.7828H83.9245C85.9261 53.7828 87.8458 52.9876 89.2611 51.5721C90.6765 50.1566 91.4716 48.2368 91.4716 46.235C91.4716 44.2332 90.6765 42.3134 89.2611 40.8979C87.8458 39.4824 85.9261 38.6872 83.9245 38.6872H72.1509C67.3857 38.6855 62.7414 40.1874 58.8794 42.9792C55.0174 45.7709 52.1346 49.71 50.6415 54.2357L48.3019 61.3306H38.6415C32.6366 61.3306 26.8776 63.7163 22.6315 67.9627C18.3854 72.2092 16 77.9687 16 83.9741V144.357C16 150.362 18.3854 156.121 22.6315 160.368C26.8776 164.614 32.6366 167 38.6415 167H144.302C150.307 167 156.066 164.614 160.312 160.368C164.558 156.121 166.943 150.362 166.943 144.357V106.618C166.943 104.616 166.148 102.696 164.733 101.28C163.317 99.8649 161.398 99.0697 159.396 99.0697Z"/>
</svg>
