<svg viewBox="0 0 24 24" fill="black" xmlns="http://www.w3.org/2000/svg">
<path d="M18 6C16.8133 4.81332 15.3014 4.00517 13.6554 3.67777C12.0094 3.35036 10.3033 3.5184 8.75283 4.16063C7.20234 4.80286 5.87713 5.89044 4.94475 7.28584C4.01238 8.68123 3.51472 10.3218 3.51472 12C3.51472 13.6782 4.01238 15.3188 4.94475 16.7142C5.87712 18.1096 7.20234 19.1971 8.75283 19.8394C10.3033 20.4816 12.0094 20.6496 13.6554 20.3222C15.3014 19.9948 16.8133 19.1867 18 18C18.7879 17.2121 19.413 16.2767 19.8394 15.2472C20.2658 14.2177 20.4853 13.1143 20.4853 12C20.4853 10.8857 20.2658 9.78231 19.8394 8.75283C19.413 7.72335 18.7879 6.78794 18 6ZM6.642 16.158C5.64244 14.8513 5.15142 13.2261 5.26023 11.5846C5.36905 9.94305 6.0703 8.39689 7.23359 7.23359C8.39689 6.0703 9.94305 5.36905 11.5846 5.26024C13.2261 5.15142 14.8513 5.64244 16.158 6.642L6.642 16.158ZM7.842 17.358L17.358 7.842C18.3576 9.14867 18.8486 10.7739 18.7398 12.4154C18.631 14.057 17.9297 15.6031 16.7664 16.7664C15.6031 17.9297 14.057 18.631 12.4154 18.7398C10.7739 18.8486 9.14867 18.3576 7.842 17.358Z"/>
</svg>
