<svg viewBox="0 0 180 180" fill="black" xmlns="http://www.w3.org/2000/svg">
<path fill-rule="evenodd" clip-rule="evenodd" d="M90 30C76.0761 30 62.7226 35.5312 52.8769 45.3769C43.0312 55.2225 37.5 68.5761 37.5 82.5V147.15C37.4997 147.672 37.6359 148.186 37.8949 148.639C38.154 149.093 38.527 149.471 38.977 149.736C39.4271 150.001 39.9385 150.144 40.4609 150.151C40.9832 150.158 41.4982 150.028 41.955 149.775L49.0275 145.853C53.5372 143.346 58.6171 142.045 63.7764 142.076C68.9357 142.106 73.9999 143.466 78.48 146.025L82.56 148.358C84.826 149.652 87.3904 150.333 90 150.333C92.6096 150.333 95.174 149.652 97.44 148.358L101.52 146.033C105.999 143.472 111.063 142.111 116.223 142.079C121.382 142.048 126.462 143.347 130.972 145.853L138.045 149.775C138.502 150.028 139.017 150.158 139.539 150.151C140.061 150.144 140.573 150.001 141.023 149.736C141.473 149.471 141.846 149.093 142.105 148.639C142.364 148.186 142.5 147.672 142.5 147.15V82.5C142.5 75.6056 141.142 68.7787 138.504 62.4091C135.865 56.0395 131.998 50.252 127.123 45.3769C122.248 40.5018 116.46 36.6347 110.091 33.9963C103.721 31.3579 96.8944 30 90 30ZM22.5 82.5C22.5 64.5979 29.6116 47.429 42.2703 34.7703C54.929 22.1116 72.0979 15 90 15C107.902 15 125.071 22.1116 137.73 34.7703C150.388 47.429 157.5 64.5979 157.5 82.5V147.15C157.5 160.875 142.755 169.552 130.762 162.892L123.69 158.962C121.434 157.709 118.894 157.059 116.313 157.075C113.733 157.091 111.2 157.772 108.96 159.053L104.887 161.378C100.354 163.969 95.2221 165.332 90 165.332C84.7779 165.332 79.6462 163.969 75.1125 161.378L71.04 159.053C68.7998 157.772 66.2672 157.091 63.6868 157.075C61.1064 157.059 58.5656 157.709 56.31 158.962L49.245 162.892C37.245 169.552 22.5 160.875 22.5 147.15V82.5ZM78.75 78.75C78.75 81.7337 77.5647 84.5952 75.455 86.705C73.3452 88.8147 70.4837 90 67.5 90C64.5163 90 61.6548 88.8147 59.545 86.705C57.4353 84.5952 56.25 81.7337 56.25 78.75C56.25 75.7663 57.4353 72.9048 59.545 70.795C61.6548 68.6853 64.5163 67.5 67.5 67.5C70.4837 67.5 73.3452 68.6853 75.455 70.795C77.5647 72.9048 78.75 75.7663 78.75 78.75ZM112.5 90C115.484 90 118.345 88.8147 120.455 86.705C122.565 84.5952 123.75 81.7337 123.75 78.75C123.75 75.7663 122.565 72.9048 120.455 70.795C118.345 68.6853 115.484 67.5 112.5 67.5C109.516 67.5 106.655 68.6853 104.545 70.795C102.435 72.9048 101.25 75.7663 101.25 78.75C101.25 81.7337 102.435 84.5952 104.545 86.705C106.655 88.8147 109.516 90 112.5 90Z"/>
</svg>
