<svg viewBox="0 0 180 180" fill="black" xmlns="http://www.w3.org/2000/svg">
<path d="M142.5 82.5V122.479L143.521 123.5H157.5V82.5C157.5 64.5979 150.388 47.429 137.73 34.7703C125.071 22.1116 107.902 15 90 15C77.006 15 64.3983 18.7467 53.6212 25.6417L62.0855 38.0359C70.3834 32.8268 80.046 30 90 30C96.8944 30 103.721 31.3579 110.091 33.9963C116.46 36.6347 122.248 40.5018 127.123 45.3769C131.998 50.252 135.865 56.0395 138.504 62.4091C141.142 68.7787 142.5 75.6056 142.5 82.5Z"/>
<path fill-rule="evenodd" clip-rule="evenodd" d="M22.5 82.5C22.5 71.2505 25.3082 60.2905 30.5364 50.5572L13.4896 33.5104C10.1701 30.191 10.1701 24.809 13.4896 21.4896C16.809 18.1701 22.191 18.1701 25.5104 21.4896L166.51 162.49C169.83 165.809 169.83 171.191 166.51 174.51C163.191 177.83 157.809 177.83 154.49 174.51L144.449 164.47C140.111 165.728 135.245 165.382 130.762 162.893L123.69 158.962C121.434 157.709 118.894 157.059 116.313 157.075C113.733 157.091 111.2 157.772 108.96 159.053L104.887 161.378C100.354 163.969 95.2221 165.332 90 165.332C84.7779 165.332 79.6462 163.969 75.1125 161.378L71.04 159.053C68.7998 157.772 66.2672 157.091 63.6868 157.075C61.1064 157.059 58.5656 157.709 56.31 158.962L49.245 162.893C37.245 169.553 22.5 160.875 22.5 147.15V82.5ZM122.733 142.753L41.761 61.7818C38.9762 68.2656 37.5 75.3067 37.5 82.5V147.15C37.4997 147.672 37.6359 148.186 37.8949 148.639C38.154 149.093 38.527 149.471 38.977 149.736C39.4271 150.001 39.9385 150.144 40.4609 150.151C40.9832 150.158 41.4982 150.028 41.955 149.775L49.0275 145.853C53.5372 143.346 58.6171 142.045 63.7764 142.076C68.9357 142.106 73.9999 143.466 78.48 146.025L82.56 148.357C84.826 149.652 87.3904 150.333 90 150.333C92.6096 150.333 95.174 149.652 97.44 148.357L101.52 146.033C105.999 143.472 111.063 142.111 116.223 142.079C118.42 142.066 120.602 142.294 122.733 142.753Z"/>
<path d="M120.455 86.705C118.345 88.8147 115.484 90 112.5 90C109.516 90 106.655 88.8147 104.545 86.705C102.435 84.5952 101.25 81.7337 101.25 78.75C101.25 75.7663 102.435 72.9048 104.545 70.795C106.655 68.6853 109.516 67.5 112.5 67.5C115.484 67.5 118.345 68.6853 120.455 70.795C122.565 72.9048 123.75 75.7663 123.75 78.75C123.75 81.7337 122.565 84.5952 120.455 86.705Z"/>
<path d="M157.5 122.5C157.5 126.642 154.142 130 150 130C145.858 130 142.5 126.642 142.5 122.5C142.5 118.358 145.858 115 150 115C154.142 115 157.5 118.358 157.5 122.5Z"/>
<path d="M65 32.1C65 36.2421 61.6421 39.6 57.5 39.6C53.3579 39.6 50 36.2421 50 32.1C50 27.9579 53.3579 24.6 57.5 24.6C61.6421 24.6 65 27.9579 65 32.1Z"/>
</svg>
