<svg viewBox="0 0 47 48" fill="black" xmlns="http://www.w3.org/2000/svg">
<path d="M21.606 5.855C22.2814 5.30226 23.1273 5.00026 24 5.00026C24.8728 5.00026 25.7186 5.30226 26.394 5.855L39.569 16.597C40.0173 16.9645 40.3783 17.4272 40.6258 17.9514C40.8733 18.4756 41.0011 19.0483 41 19.628V39.113C41 41.26 39.288 43 37.175 43H31.825C29.712 43 28 41.26 28 39.113V29.887C28 29.171 27.43 28.591 26.725 28.591H21.275C20.571 28.591 20 29.171 20 29.887V39.113C20 41.26 18.288 43 16.175 43H10.825C8.71301 43 7.00001 41.26 7.00001 39.113V19.628C6.99892 19.0483 7.12676 18.4756 7.37425 17.9514C7.62174 17.4272 7.98271 16.9645 8.43101 16.597L21.606 5.855ZM24.798 7.876C24.5729 7.69175 24.2909 7.59108 24 7.59108C23.7091 7.59108 23.4271 7.69175 23.202 7.876L10.027 18.617C9.87731 18.7394 9.75681 18.8937 9.67429 19.0686C9.59177 19.2435 9.54931 19.4346 9.55001 19.628V39.113C9.55001 39.829 10.12 40.409 10.825 40.409H16.175C16.879 40.409 17.45 39.829 17.45 39.113V29.887C17.45 27.74 19.163 26 21.275 26H26.725C28.837 26 30.55 27.74 30.55 29.887V39.113C30.55 39.829 31.12 40.409 31.825 40.409H37.175C37.879 40.409 38.45 39.829 38.45 39.113V19.628C38.4506 19.4348 38.408 19.2439 38.3255 19.0692C38.243 18.8944 38.1226 18.7403 37.973 18.618L24.798 7.876Z"/>
</svg>
