<svg viewBox="0 0 24 24" fill="black" xmlns="http://www.w3.org/2000/svg">
<path d="M15 20C14.4477 20 14 19.5523 14 19L14 17C14 16.2043 14.3161 15.4413 14.8787 14.8787C15.4413 14.3161 16.2044 14 17 14L19 14C19.5523 14 20 14.4477 20 15C20 15.5523 19.5523 16 19 16L17 16C16.7348 16 16.4804 16.1054 16.2929 16.2929C16.1054 16.4804 16 16.7348 16 17L16 19C16 19.5523 15.5523 20 15 20Z"/>
<path d="M9 20C8.44772 20 8 19.5523 8 19L8 17C8 16.7348 7.89464 16.4804 7.70711 16.2929C7.51957 16.1054 7.26522 16 7 16L5 16C4.44772 16 4 15.5523 4 15C4 14.4477 4.44772 14 5 14L7 14C7.79565 14 8.55871 14.3161 9.12132 14.8787C9.68393 15.4413 10 16.2044 10 17L10 19C10 19.5523 9.55228 20 9 20Z"/>
<path d="M20 9C20 9.55228 19.5523 10 19 10L17 10C16.2044 10 15.4413 9.68393 14.8787 9.12132C14.3161 8.55871 14 7.79565 14 7L14 5C14 4.44771 14.4477 4 15 4C15.5523 4 16 4.44771 16 5L16 7C16 7.26522 16.1054 7.51957 16.2929 7.70711C16.4804 7.89464 16.7348 8 17 8L19 8C19.5523 8 20 8.44772 20 9Z"/>
<path d="M7 8C7.26522 8 7.51957 7.89464 7.70711 7.70711C7.89464 7.51957 8 7.26522 8 7L8 5C8 4.44772 8.44771 4 9 4C9.55228 4 10 4.44772 10 5L10 7C10 7.79565 9.68393 8.55871 9.12132 9.12132C8.55871 9.68393 7.79565 10 7 10L5 10C4.44772 10 4 9.55229 4 9C4 8.44772 4.44772 8 5 8L7 8Z"/>
</svg>
