<svg viewBox="0 0 24 24" fill="black" xmlns="http://www.w3.org/2000/svg">
<path d="M20.1196 9.08033L14.3197 3.28033C14.2306 3.19338 14.1255 3.12445 14.0103 3.07733C13.8905 3.02863 13.7627 3.00241 13.6333 3H5.9C5.13087 3 4.39324 3.30553 3.84939 3.84939C3.30553 4.39325 3 5.13087 3 5.9V17.5C3 18.2691 3.30553 19.0068 3.84939 19.5506C4.39324 20.0945 5.13087 20.4 5.9 20.4H17.5C18.2691 20.4 19.0067 20.0945 19.5506 19.5506C20.0944 19.0068 20.4 18.2691 20.4 17.5V9.76667C20.4007 9.63945 20.3763 9.51333 20.3282 9.39556C20.2801 9.27778 20.2092 9.17066 20.1196 9.08033ZM8.79999 4.93333H12.6667V6.86667H8.79999V4.93333ZM14.6 18.4667H8.79999V15.5667C8.79999 15.3103 8.90184 15.0644 9.08312 14.8831C9.26441 14.7018 9.51028 14.6 9.76666 14.6H13.6333C13.8897 14.6 14.1356 14.7018 14.3169 14.8831C14.4981 15.0644 14.6 15.3103 14.6 15.5667V18.4667ZM18.4667 17.5C18.4667 17.7564 18.3648 18.0023 18.1835 18.1835C18.0022 18.3648 17.7564 18.4667 17.5 18.4667H16.5333V15.5667C16.5333 14.7975 16.2278 14.0599 15.6839 13.5161C15.1401 12.9722 14.4025 12.6667 13.6333 12.6667H9.76666C8.99753 12.6667 8.25991 12.9722 7.71605 13.5161C7.1722 14.0599 6.86666 14.7975 6.86666 15.5667V18.4667H5.9C5.64362 18.4667 5.39775 18.3648 5.21646 18.1835C5.03518 18.0023 4.93333 17.7564 4.93333 17.5V5.9C4.93333 5.64362 5.03518 5.39775 5.21646 5.21646C5.39775 5.03518 5.64362 4.93333 5.9 4.93333H6.86666V7.83333C6.86666 8.08971 6.96851 8.33558 7.14979 8.51687C7.33108 8.69815 7.57695 8.8 7.83333 8.8H13.6333C13.8897 8.8 14.1356 8.69815 14.3169 8.51687C14.4981 8.33558 14.6 8.08971 14.6 7.83333V6.29633L18.4667 10.163V17.5Z"/>
</svg>
